<?xml version="1.0" encoding="UTF-8"?>
<svg id="Layer_1" xmlns="http://www.w3.org/2000/svg" xmlns:xlink="http://www.w3.org/1999/xlink" version="1.1" viewBox="0 0 2458 714">
  <!-- Generator: Adobe Illustrator 29.8.5, SVG Export Plug-In . SVG Version: 2.1.1 Build 2)  -->
  <defs>
    <style>
      .st0 {
        fill: none;
      }

      .st1, .st2 {
        fill: #451e0d;
      }

      .st2 {
        fill-rule: evenodd;
      }

      .st3 {
        fill: url(#radial-gradient);
      }

      .st4 {
        clip-path: url(#clippath);
      }
    </style>
    <clipPath id="clippath">
      <rect class="st0" y="0" width="2458" height="714"/>
    </clipPath>
    <radialGradient id="radial-gradient" cx="808.1" cy="655.4" fx="808.1" fy="655.4" r="1" gradientTransform="translate(468395.8 577685) rotate(-90) scale(714 -714)" gradientUnits="userSpaceOnUse">
      <stop offset="0" stop-color="#622a12"/>
      <stop offset=".7" stop-color="#ff671f"/>
    </radialGradient>
  </defs>
  <g class="st4">
    <g>
      <path class="st3" d="M535.4,131.6L445.4,5.3c-5.1-7.1-15.7-7.1-20.7,0-22.1,31-73.3,102.8-90,126.3-3.4,4.8-4.4,10.8-2.8,16.4,53.3,183,62.8,356.5,69,553.2.2,6.9,5.8,12.3,12.7,12.3h42.8c6.9,0,12.5-5.5,12.7-12.3,6.2-196.6,15.7-370.3,69-553.3,1.6-5.6.6-11.7-2.8-16.4h0ZM275.6,699.1c1.1,7.7-4.9,14.5-12.6,14.5h-36.3c-6,0-11.1-4.2-12.4-10C174.7,524.6,93.1,349.9,1.8,193.2c-6.6-11.3,6-24,17.4-17.5l106,61.3c3.2,1.8,5.7,4.5,7.4,7.8,73.1,142.1,121,294.8,143,454.4h0ZM320,243.5c32.8,152.6,40.6,294.3,45.5,457,.2,7.2-5.5,13.1-12.7,13.1h-28.4c-6.4,0-11.8-4.7-12.6-11.1-21.2-159.3-67-311.9-137.8-454.3-2.7-5.5-2.6-12,.2-17.4l22.6-42.9c5.1-9.6,17.1-13.1,26.5-7.6,26.6,15.4,65,37.6,87.6,50.6,4.7,2.7,8,7.3,9.1,12.6ZM696.1,248.2c-70.9,142.4-116.7,295.1-137.8,454.3-.8,6.3-6.2,11.1-12.6,11.1h-28.4c-7.2,0-13-6-12.7-13.1,4.9-162.7,12.7-304.3,45.5-457,1.1-5.3,4.4-9.9,9.1-12.6,22.6-13.1,61.1-35.3,87.6-50.6,9.4-5.4,21.4-2,26.5,7.6l22.6,42.9c2.9,5.4,3,11.9.2,17.4ZM868.2,193.2c-91.3,156.7-172.9,331.4-212.4,510.4-1.3,5.8-6.5,10-12.4,10h-36.3c-7.7,0-13.7-6.8-12.6-14.5,22-159.6,69.9-312.3,143-454.4,1.7-3.3,4.3-6,7.4-7.8l106-61.3c11.3-6.5,24,6.2,17.4,17.5h-.1Z"/>
      <path class="st2" d="M1182.1,351.7c19.7,59.6-30.1,94.9-87,92.5-51.9,1.6-99.1-25-96.9-81.6h57.9c.4,21.3,17.9,32.3,38.2,31.6,10.6,0,20.1-1.9,26.3-9.1,7.9-10.1,1.5-21.7-10.4-25.8-26.2-9.7-69.9-12.4-89.2-32.3-21.3-17.6-22-57.1-5.6-78.9,17.7-24.2,48-34.1,79.4-34.1,45.7-1.5,89.2,25.2,88.6,73.2h-58.3c-.5-22.6-28-26.9-45.7-20.9-9.8,3-14.4,13.3-10.3,22.1,6,9.3,17.7,11.4,28.8,14.1,33,6.3,72.1,15.4,84.4,49.1h-.2ZM1342.4,355.7c1.3,28.5-31,44.7-54.6,31.3-11.3-6.4-17.4-18.2-17.3-31.3v-138.6h-61v143.8c-1.5,53.7,46,84.9,96.9,83.3,50.7,1.6,98.3-29.9,96.9-83.3v-143.8h-61v138.6h0ZM1493.2,217.1h-61v224.5h151.7v-49.1h-90.8v-175.4h0ZM1770.8,217.1h-195.1v49.1h67.5v175.4h60.1v-175.4h67.5v-49.1ZM1915.4,217.1l74.1,224.5h-65.8l-13-43h-74l-13,43h-65.8l74.1-224.5h83.4ZM1897,353l-22.4-74.1h-1.8l-22.4,74.1h46.6ZM2144.4,334.6h-1.8l-79.8-117.5h-51.7v224.5h60.9v-117.9h1.3l81.1,117.9h50.9v-224.5h-61v117.5h0ZM2458.3,441.6h-65.8l-13-43h-74l-13,43h-65.8l74.1-224.5h83.3l74.1,224.5h.1ZM2365.8,353l-22.4-74.1h-1.8l-22.4,74.1h46.6Z"/>
      <path class="st1" d="M1781.4,540.3c27.2-.6,56,15.7,56.9,44.4h-19.7c-4.3-41.9-92.7-31.1-71.8,13.2,14.6,18.2,41,16.8,61.1,25.7,28.7,9.3,42.5,39.6,25.6,66.3-11.5,17.2-31.4,24.1-53.7,24-29.8.8-58.7-15.3-60.5-46.4h21c3.4,34,57.2,35.7,75.1,13.5,16.4-24.7-5.2-38.8-28.1-44.1-16.5-4.5-41.1-10.8-52-22.1-14.3-12.1-14.9-37.6-3.9-52.2,11.2-15.3,30.3-22.4,49.9-22.4h0ZM1929.1,540.3c27.2-.6,56,15.7,56.9,44.4h-19.7c-4.3-41.9-92.7-31.1-71.8,13.2,14.5,18.2,41,16.8,61.1,25.7,28.7,9.3,42.5,39.7,25.6,66.3-11.5,17.2-31.4,24.1-53.7,24-29.8.8-58.7-15.3-60.5-46.4h21.1c3.4,34,57.2,35.7,75.1,13.5,16.4-24.7-5.2-38.8-28.1-44.1-16.5-4.5-41.1-10.8-52-22.1-14.3-12.1-14.9-37.6-3.9-52.2,11.2-15.3,30.4-22.4,49.9-22.4h0ZM1107.7,560.7h-81.2v56.9h76v18.1h-76v57.2h82.5v18.1h-102.9v-168.4h101.6v18.1ZM1197.8,612.7h1.3l43.4-70h24l-53,84.2,53,84.2h-24l-43.4-68.7h-1.3l-43.4,68.7h-24l54.3-84.2-54.3-84.2h24l43.4,70ZM1349.9,542.6c22.9,0,41.2,7.5,51.1,26.3,12,24.2,6.7,59.6-18.6,73.4-14.9,10.2-50.5,6.6-69.1,7.2v61.5h-20.4v-168.4h57ZM1313.4,631.4c30.6-.8,73.6,8.3,73.7-35.5,0-43.6-43.4-34.4-73.7-35.2v70.7ZM1496.9,542.6c22.6,0,41,6.6,51.1,25.1,13.4,25.7,5.1,64.8-25.4,73.9l38,69.4h-23.7l-35.5-65.8c-.7.2-39,0-41.1,0v65.8h-20.4v-168.4h57ZM1460.4,626.8c27.8-1.1,74.6,8.8,73.7-32.6.6-42.2-45-32.5-73.7-33.5v66.1ZM1689.7,560.7h-81.2v56.9h76v18.1h-76v57.2h82.5v18.1h-102.9v-168.4h101.6v18.1Z"/>
    </g>
  </g>
</svg>